<svg width="48" height="48" viewBox="0 0 48 48" fill="none" xmlns="http://www.w3.org/2000/svg">
<path d="M0 6.72C0 3.00865 3.00865 0 6.72 0H41.28C44.9914 0 48 3.00865 48 6.72V41.28C48 44.9914 44.9914 48 41.28 48H6.72C3.00865 48 0 44.9914 0 41.28V6.72Z" fill="#EEE4DA"/>
<path d="M17.28 12.96C17.28 15.3459 15.3459 17.28 12.96 17.28C10.5741 17.28 8.64 15.3459 8.64 12.96C8.64 10.5741 10.5741 8.64 12.96 8.64C15.3459 8.64 17.28 10.5741 17.28 12.96Z" fill="#121212"/>
<path d="M9.6 20.16C9.6 19.6298 10.0298 19.2 10.56 19.2H15.36C15.8902 19.2 16.32 19.6298 16.32 20.16V38.4C16.32 38.9302 15.8902 39.36 15.36 39.36H10.56C10.0298 39.36 9.6 38.9302 9.6 38.4V20.16Z" fill="#121212"/>
<path d="M20.16 19.2L24.48 19.2C25.0102 19.2 25.44 19.6298 25.44 20.16V21.12C27.36 18.72 30.88 18.56 32.64 18.72C38.1267 19.2187 39.04 24.8 38.88 27.84L38.88 38.4C38.88 38.9302 38.4502 39.36 37.92 39.36L33.6 39.36C33.0698 39.36 32.64 38.9302 32.64 38.4V27.84C32.48 26.56 31.584 24 29.28 24C26.976 24 25.6 26.88 25.44 27.84V38.4C25.44 38.9302 25.0102 39.36 24.48 39.36L20.16 39.36C19.6298 39.36 19.2 38.9302 19.2 38.4V20.16C19.2 19.6298 19.6298 19.2 20.16 19.2Z" fill="#121212"/>
</svg>
