<svg width="64" height="64" viewBox="0 0 64 64" fill="none" xmlns="http://www.w3.org/2000/svg">
<g filter="url(#filter0_d_24_1396)">
<rect x="6" y="6" width="48" height="48" rx="11" fill="#EEE4DA"/>
<path d="M24.0357 20C24.9307 20 25.7576 20.0681 26.5163 20.2723C27.2749 20.4084 27.8972 20.6892 28.4513 21.0296C29.0053 21.3699 29.4145 21.8549 29.6958 22.476C29.9686 23.0972 30.1135 23.8545 30.1135 24.6798C30.1135 25.6413 29.9089 26.4666 29.423 27.0878C29.0053 27.7089 28.3234 28.262 27.488 28.6704C28.6644 29.0107 29.5594 29.6319 30.105 30.4572C30.6505 31.2826 31 32.3121 31 33.4863C31 34.4478 30.7954 35.2732 30.4459 35.9624C30.105 36.6516 29.5509 37.2727 28.9286 37.6811C28.3063 38.0981 27.5477 38.4384 26.7208 38.6426C25.894 38.8468 25.0671 38.983 24.2403 38.983L15 39V20H24.0357ZM23.4816 27.7089C24.2403 27.7089 24.8625 27.5047 25.3399 27.1558C25.8173 26.807 26.0304 26.1944 26.0304 25.4371C26.0304 25.0202 25.9622 24.6117 25.8258 24.3395C25.6894 24.0672 25.4848 23.8545 25.2035 23.6502C24.9307 23.5141 24.6494 23.378 24.3085 23.3099C23.9675 23.2418 23.618 23.2418 23.2088 23.2418H19.211V27.7174C19.211 27.7089 23.4816 27.7089 23.4816 27.7089ZM23.6862 35.8348C24.1039 35.8348 24.5131 35.7667 24.8625 35.6986C25.2035 35.6305 25.553 35.4944 25.8258 35.2817C26.0986 35.069 26.3117 34.8648 26.5163 34.5244C26.6526 34.1841 26.789 33.7671 26.789 33.2821C26.789 32.3206 26.5163 31.6314 25.9622 31.1464C25.4081 30.7295 24.6494 30.5253 23.7544 30.5253H19.211V35.8262H23.6862V35.8348Z" fill="#121212"/>
<path d="M37.395 36.3241C37.9211 36.8721 38.7062 37.1419 39.7504 37.1419C40.4707 37.1419 41.1263 36.9396 41.6524 36.5939C42.1785 36.1808 42.5023 35.7761 42.6318 35.363H45.837C45.3109 36.9986 44.5258 38.1621 43.4817 38.9124C42.4375 39.5953 41.1911 40 39.6856 40C38.6415 40 37.7188 39.7977 36.8689 39.452C36.019 39.1148 35.3634 38.6342 34.7726 37.9513C34.1817 37.3358 33.7285 36.5855 33.4614 35.7002C33.1376 34.815 33 33.8623 33 32.7663C33 31.7461 33.1295 30.785 33.4614 29.8998C33.7932 29.0145 34.2465 28.2642 34.8373 27.5813C35.4282 26.9658 36.1485 26.4178 36.9337 26.0806C37.7835 25.7433 38.6334 25.5326 39.6856 25.5326C40.8026 25.5326 41.7819 25.7349 42.6318 26.2155C43.4817 26.696 44.1373 27.2356 44.6634 28.0534C45.1895 28.8037 45.578 29.689 45.8451 30.6417C45.9746 31.5944 46.0393 32.5555 45.9746 33.6431H36.4804C36.4804 34.756 36.8689 35.7761 37.395 36.3241ZM41.5229 29.1578C41.0616 28.6773 40.3412 28.4075 39.4913 28.4075C38.9005 28.4075 38.4472 28.5424 38.0506 28.7447C37.654 28.9471 37.395 29.2253 37.136 29.4951C36.877 29.7649 36.7394 30.1105 36.6747 30.4478C36.6099 30.785 36.5451 31.0632 36.5451 31.333H42.4375C42.308 30.3213 41.9762 29.6384 41.5229 29.1578ZM35.76 22H43.0932V23.8379H35.76V22Z" fill="#121212"/>
</g>
<defs>
<filter id="filter0_d_24_1396" x="0" y="0" width="64" height="64" filterUnits="userSpaceOnUse" color-interpolation-filters="sRGB">
<feFlood flood-opacity="0" result="BackgroundImageFix"/>
<feColorMatrix in="SourceAlpha" type="matrix" values="0 0 0 0 0 0 0 0 0 0 0 0 0 0 0 0 0 0 127 0" result="hardAlpha"/>
<feOffset dx="2" dy="2"/>
<feGaussianBlur stdDeviation="4"/>
<feComposite in2="hardAlpha" operator="out"/>
<feColorMatrix type="matrix" values="0 0 0 0 0.0627451 0 0 0 0 0.0627451 0 0 0 0 0.0627451 0 0 0 0.24 0"/>
<feBlend mode="normal" in2="BackgroundImageFix" result="effect1_dropShadow_24_1396"/>
<feBlend mode="normal" in="SourceGraphic" in2="effect1_dropShadow_24_1396" result="shape"/>
</filter>
</defs>
</svg>
