<svg width="64" height="55" viewBox="0 0 64 55" fill="none" xmlns="http://www.w3.org/2000/svg">
<g filter="url(#filter0_d_24_1392)">
<path d="M21.1003 45.0014C39.2091 45.0014 49.1166 29.9949 49.1166 16.9852C49.1166 16.5633 49.1072 16.1321 49.0884 15.7102C51.0158 14.3164 52.679 12.59 54 10.6121C52.205 11.4107 50.2993 11.9322 48.3478 12.1589C50.4026 10.9273 51.9411 8.99241 52.6781 6.713C50.7451 7.85858 48.6312 8.66669 46.4269 9.10269C44.9417 7.52459 42.978 6.4797 40.8394 6.12957C38.7008 5.77944 36.5064 6.14357 34.5955 7.16566C32.6846 8.18775 31.1636 9.81088 30.2677 11.7841C29.3718 13.7573 29.1509 15.9707 29.6391 18.0821C25.725 17.8856 21.8959 16.8689 18.4 15.0977C14.9041 13.3265 11.8194 10.8403 9.34594 7.8005C8.0888 9.96795 7.70411 12.5328 8.27006 14.9736C8.83601 17.4145 10.3101 19.5484 12.3928 20.9414C10.8293 20.8918 9.29995 20.4708 7.93125 19.7133V19.8352C7.92985 22.1098 8.7162 24.3146 10.1566 26.075C11.597 27.8354 13.6026 29.0426 15.8325 29.4914C14.3841 29.8877 12.864 29.9455 11.3897 29.6602C12.0189 31.6163 13.2431 33.3272 14.8915 34.5541C16.5399 35.781 18.5302 36.4627 20.5847 36.5039C17.0968 39.2437 12.7883 40.7297 8.35313 40.7227C7.56657 40.7215 6.7808 40.6733 6 40.5783C10.5057 43.469 15.7471 45.0042 21.1003 45.0014Z" fill="#EEE4DA"/>
</g>
<defs>
<filter id="filter0_d_24_1392" x="0" y="-4" width="64" height="64" filterUnits="userSpaceOnUse" color-interpolation-filters="sRGB">
<feFlood flood-opacity="0" result="BackgroundImageFix"/>
<feColorMatrix in="SourceAlpha" type="matrix" values="0 0 0 0 0 0 0 0 0 0 0 0 0 0 0 0 0 0 127 0" result="hardAlpha"/>
<feOffset dx="2" dy="2"/>
<feGaussianBlur stdDeviation="4"/>
<feComposite in2="hardAlpha" operator="out"/>
<feColorMatrix type="matrix" values="0 0 0 0 0.0627451 0 0 0 0 0.0627451 0 0 0 0 0.0627451 0 0 0 0.24 0"/>
<feBlend mode="normal" in2="BackgroundImageFix" result="effect1_dropShadow_24_1392"/>
<feBlend mode="normal" in="SourceGraphic" in2="effect1_dropShadow_24_1392" result="shape"/>
</filter>
</defs>
</svg>
